HIERARCHY
ROOT Hips
{
  OFFSET 50.3132 50.3383 8.66298
  CHANNELS 6 Xposition Yposition Zposition Zrotation Xrotation Yrotation
  JOINT spine
  {
    OFFSET 0 8.81704 0.507024
    CHANNELS 3 Zrotation Xrotation Yrotation
    JOINT spine1
    {
      OFFSET 0 10.7766 0
      CHANNELS 3 Zrotation Xrotation Yrotation
      JOINT spine2
      {
        OFFSET 0 10.3259 0
        CHANNELS 3 Zrotation Xrotation Yrotation
        JOINT Neck
        {
          OFFSET 0 26.511 1.26395
          CHANNELS 3 Zrotation Xrotation Yrotation
          JOINT Head
          {
            OFFSET 0 8.00966 0
            CHANNELS 3 Zrotation Xrotation Yrotation
            End Site
            {
              OFFSET 0 19.3879 -6.39386
            }
          }
        }
        JOINT RightShoulder
        {
          OFFSET -4.34795 11.1512 -0.605422
          CHANNELS 3 Zrotation Xrotation Yrotation
          JOINT RightArm
          {
            OFFSET 0 14.6258 0
            CHANNELS 3 Zrotation Xrotation Yrotation
            JOINT RightArmRoll
            {
              OFFSET 0 7.3834 0
              CHANNELS 3 Zrotation Xrotation Yrotation
              JOINT RightForeArm
              {
                OFFSET 0 21.5052 0
                CHANNELS 3 Zrotation Xrotation Yrotation
                JOINT RightForeArmRoll
                {
                  OFFSET 0 8.28531 0
                  CHANNELS 3 Zrotation Xrotation Yrotation
                  JOINT RightHand
                  {
                    OFFSET 0 16.6268 0
                    CHANNELS 3 Zrotation Xrotation Yrotation
                    End Site
                    {
                      OFFSET 0 0 0
                    }
                  }
                }
              }
            }
          }
        }
        JOINT LeftShoulder
        {
          OFFSET 4.34795 11.1512 -0.605422
          CHANNELS 3 Zrotation Xrotation Yrotation
          JOINT LeftArm
          {
            OFFSET 0 14.6258 0
            CHANNELS 3 Zrotation Xrotation Yrotation
            JOINT LeftArmRoll
            {
              OFFSET 0 7.3834 0
              CHANNELS 3 Zrotation Xrotation Yrotation
              JOINT LeftForeArm
              {
                OFFSET 0 21.5052 0
                CHANNELS 3 Zrotation Xrotation Yrotation
                JOINT LeftForeArmRoll
                {
                  OFFSET 0 8.28532 0
                  CHANNELS 3 Zrotation Xrotation Yrotation
                  JOINT LeftHand
                  {
                    OFFSET 0 16.6268 0
                    CHANNELS 3 Zrotation Xrotation Yrotation
                    End Site
                    {
                      OFFSET 0 0 0
                    }
                  }
                }
              }
            }
          }
        }
      }
    }
  }
  JOINT RightUpLeg
  {
    OFFSET -7.8151 -1.43309 -1.20217
    CHANNELS 3 Zrotation Xrotation Yrotation
    JOINT RightUpLegRoll
    {
      OFFSET 0 19.4959 0
      CHANNELS 3 Zrotation Xrotation Yrotation
      JOINT RightLeg
      {
        OFFSET 0 -24.1427 0
        CHANNELS 3 Zrotation Xrotation Yrotation
        JOINT RightLegRoll
        {
          OFFSET 0 24.2217 0
          CHANNELS 3 Zrotation Xrotation Yrotation
          JOINT RightFoot
          {
            OFFSET 0 20.1605 0
            CHANNELS 3 Zrotation Xrotation Yrotation
            JOINT RightToeBase
            {
              OFFSET 0 16.8532 0
              CHANNELS 3 Zrotation Xrotation Yrotation
              End Site
              {
                OFFSET 0.00714343 8.16187 -0.940781
              }
            }
          }
        }
      }
    }
  }
  JOINT LeftUpLeg
  {
    OFFSET 7.8151 -1.43309 -1.20217
    CHANNELS 3 Zrotation Xrotation Yrotation
    JOINT LeftUpLegRoll
    {
      OFFSET 0 19.496 0
      CHANNELS 3 Zrotation Xrotation Yrotation
      JOINT LeftLeg
      {
        OFFSET 0 24.1426 0
        CHANNELS 3 Zrotation Xrotation Yrotation
        JOINT LeftLegRoll
        {
          OFFSET 0 24.4456 0
          CHANNELS 3 Zrotation Xrotation Yrotation
          JOINT LeftFoot
          {
            OFFSET 0 19.9366 0
            CHANNELS 3 Zrotation Xrotation Yrotation
            JOINT LeftToeBase
            {
              OFFSET 0 16.8532 0
              CHANNELS 3 Zrotation Xrotation Yrotation
              End Site
              {
                OFFSET -0.0320138 8.16186 -0.940781
              }
            }
          }
        }
      }
    }
  }
}
MOTION
Frames: 6
Frame Time: 0.00208333
48.2495 100.795 41.7232 -0.067507 -3.92565 1.58027 0.221245 -1.62344 -0.100187 0.43871 0.74675 -0.232065 0.444341 2.3918 -0.239736 -1.40621 26.7598 3.94395 -2.65658 -11.5289 2.84022 66.4014 -1.44139 -1.71798 107.121 19.5765 13.1419 -7.04231e-006 3.83403e-007 -1.35275e-007 12.5548 0.100502 -0.403886 -5.45348e-006 9.56834e-007 -3.01698 8.0289 -4.95145 0.697687 -61.4637 -5.84387 3.78142 -112.729 15.2646 -1.88011 2.78299e-015 1.59028e-014 1.59028e-015 -12.8577 3.35387 0.734388 1.16932e-005 -1.25153e-006 3 -8.02886 -4.95147 -0.697698 177.936 -2.44846 -0.109109 180 7.01522e-015 178.82 179.104 8.37477 179.583 -1.01584e-006 -2.57673e-006 0.115577 -19.322 68.7585 20.1942 8.16576 25.7872 -2.73437 -176.193 -2.11098 1.86055 4.54188e-006 -4.6773e-006 -1.18203 -1.69071 -8.59305 0.227205 -3.98827e-006 -1.60974e-006 -0.148481 19.5333 68.9604 -20.3604 -8.16214 25.6979 2.85942 
48.2407 100.8 41.7221 -0.0695221 -3.92669 1.58158 0.221318 -1.62165 -0.100637 0.438986 0.751934 -0.232854 0.444429 2.39698 -0.240513 -1.40892 26.7615 3.94731 -2.65626 -11.5083 2.84278 66.3874 -1.44502 -1.71849 107.14 19.5869 13.1296 -7.04231e-006 3.83403e-007 -1.35275e-007 12.5564 0.100501 -0.403964 -5.45348e-006 9.56834e-007 -3.01698 8.0289 -4.95145 0.697687 -61.4569 -5.84485 3.78164 -112.738 15.2719 -1.87341 7.55382e-015 1.27222e-014 1.59028e-015 -12.8574 3.35723 0.733975 1.16932e-005 -1.25153e-006 3 -8.02886 -4.95147 -0.697698 177.938 -2.44312 -0.110601 180 7.01522e-015 178.82 179.104 8.3778 179.583 -1.01584e-006 -2.57673e-006 0.115593 -19.3202 68.7566 20.1923 8.16573 25.7868 -2.73495 -176.191 -2.10265 1.86 4.54188e-006 -4.6773e-006 -1.18202 -1.6898 -8.60097 0.228032 -3.98827e-006 -1.60974e-006 -0.148474 19.5348 68.962 -20.362 -8.16205 25.6966 2.86115 
48.2403 100.809 41.7093 -0.0715837 -3.92767 1.58294 0.22138 -1.61992 -0.101104 0.439219 0.75707 -0.233688 0.444468 2.40212 -0.241333 -1.41192 26.763 3.95085 -2.65517 -11.4884 2.84556 66.3728 -1.44949 -1.71939 107.159 19.5976 13.1169 -7.04231e-006 3.83403e-007 -1.35275e-007 12.558 0.100501 -0.404078 -5.45348e-006 9.56834e-007 -3.01698 8.0289 -4.95145 0.697687 -61.4497 -5.84598 3.78192 -112.747 15.2792 -1.86674 -9.54166e-015 9.54166e-015 -1.59028e-015 -12.8569 3.36054 0.733509 1.16932e-005 -1.25153e-006 3 -8.02886 -4.95147 -0.697698 177.941 -2.43759 -0.112154 180 7.01522e-015 178.82 179.105 8.3813 179.583 -1.01584e-006 -2.57673e-006 0.115618 -19.3188 68.7551 20.1908 8.1657 25.7863 -2.7356 -176.189 -2.09416 1.85971 4.54188e-006 -4.6773e-006 -1.18202 -1.68861 -8.60922 0.228915 -3.98827e-006 -1.60974e-006 -0.148463 19.5365 68.9639 -20.3638 -8.16197 25.6955 2.86255 
48.247 100.808 41.7038 -0.0736778 -3.92863 1.58432 0.221434 -1.61824 -0.101584 0.439422 0.762172 -0.234553 0.444471 2.40722 -0.242184 -1.41513 26.7644 3.95453 -2.65354 -11.469 2.84848 66.3579 -1.45455 -1.72057 107.18 19.6086 13.1038 -7.04231e-006 3.83403e-007 -1.35275e-007 12.5596 0.1005 -0.404218 -5.45348e-006 9.56834e-007 -3.01698 8.0289 -4.95145 0.697687 -61.4422 -5.84722 3.78225 -112.756 15.2865 -1.86009 -9.93923e-015 6.36111e-015 -1.59028e-015 -12.8563 3.36381 0.733006 1.16932e-005 -1.25153e-006 3 -8.02886 -4.95147 -0.697698 177.944 -2.43191 -0.113749 180 7.01522e-015 178.82 179.105 8.3851 179.583 -1.01584e-006 -2.57673e-006 0.115649 -19.3176 68.7539 20.1895 8.16566 25.7858 -2.73628 -176.187 -2.08556 1.8596 4.54188e-006 -4.6773e-006 -1.18201 -1.68721 -8.61768 0.229836 -3.98827e-006 -1.60974e-006 -0.14845 19.5383 68.9658 -20.3657 -8.16191 25.6946 2.86373 
48.25 100.795 41.7061 -0.0757906 -3.92956 1.58572 0.221484 -1.61659 -0.102071 0.439607 0.767254 -0.235436 0.444453 2.4123 -0.243051 -1.41845 26.7656 3.95828 -2.65159 -11.4498 2.85149 66.3427 -1.45995 -1.7219 107.2 19.6199 13.0906 -7.04231e-006 3.83403e-007 -1.35275e-007 12.5612 0.100499 -0.404373 -5.45348e-006 9.56834e-007 -3.01698 8.0289 -4.95145 0.697687 -61.4344 -5.84851 3.7826 -112.765 15.2938 -1.85346 8.34896e-015 1.27222e-014 3.18055e-015 -12.8556 3.36706 0.732481 1.16932e-005 -1.25153e-006 3 -8.02886 -4.95147 -0.697698 177.947 -2.42616 -0.11537 180 7.01522e-015 178.82 179.105 8.38906 179.583 -1.01584e-006 -2.57673e-006 0.115682 -19.3165 68.7529 20.1884 8.16562 25.7853 -2.73698 -176.184 -2.0769 1.85959 4.54188e-006 -4.6773e-006 -1.18201 -1.68571 -8.62627 0.230781 -3.98828e-006 -1.60974e-006 -0.148436 19.5401 68.9678 -20.3678 -8.16185 25.6939 2.86478 
48.2458 100.802 41.707 -0.077908 -3.93049 1.58712 0.221533 -1.61494 -0.10256 0.439789 0.772332 -0.236324 0.444431 2.41738 -0.243923 -1.4218 26.7669 3.96205 -2.64958 -11.4307 2.85451 66.3275 -1.46542 -1.72327 107.221 19.6311 13.0773 -7.04231e-006 3.83403e-007 -1.35275e-007 12.5628 0.100499 -0.404532 -5.45348e-006 9.56834e-007 -3.01698 8.0289 -4.95145 0.697687 -61.4267 -5.84982 3.78296 -112.775 15.3011 -1.84682 1.59028e-015 9.54166e-015 -0 -12.8549 3.3703 0.731951 1.16932e-005 -1.25153e-006 3 -8.02886 -4.95147 -0.697698 177.95 -2.42039 -0.116996 180 7.01522e-015 178.82 179.105 8.39309 179.583 -1.01584e-006 -2.57673e-006 0.115717 -19.3155 68.7519 20.1873 8.16559 25.7847 -2.73769 -176.182 -2.06822 1.8596 4.54188e-006 -4.6773e-006 -1.18201 -1.68417 -8.63489 0.23173 -3.98827e-006 -1.60974e-006 -0.148421 19.542 68.9699 -20.3698 -8.16179 25.6931 2.8658 
